<?xml version="1.0" encoding="UTF-8" standalone="no"?>
<!-- Created with matplotlib (http://matplotlib.org/) -->

<svg
   xmlns:dc="http://purl.org/dc/elements/1.1/"
   xmlns:cc="http://creativecommons.org/ns#"
   xmlns:rdf="http://www.w3.org/1999/02/22-rdf-syntax-ns#"
   xmlns:svg="http://www.w3.org/2000/svg"
   xmlns="http://www.w3.org/2000/svg"
   xmlns:xlink="http://www.w3.org/1999/xlink"
   xmlns:sodipodi="http://sodipodi.sourceforge.net/DTD/sodipodi-0.dtd"
   xmlns:inkscape="http://www.inkscape.org/namespaces/inkscape"
   height="380.56134pt"
   version="1.1"
   viewBox="0 0 490.20282 380.56134"
   width="490.20282pt"
   id="svg311"
   sodipodi:docname="covertypes_pie_chart.svg"
   inkscape:version="0.92.3 (unknown)">
  <metadata
     id="metadata315">
    <rdf:RDF>
      <cc:Work
         rdf:about="">
        <dc:format>image/svg+xml</dc:format>
        <dc:type
           rdf:resource="http://purl.org/dc/dcmitype/StillImage" />
        <dc:title></dc:title>
      </cc:Work>
    </rdf:RDF>
  </metadata>
  <sodipodi:namedview
     pagecolor="#ffffff"
     bordercolor="#666666"
     borderopacity="1"
     objecttolerance="10"
     gridtolerance="10"
     guidetolerance="10"
     inkscape:pageopacity="0"
     inkscape:pageshadow="2"
     inkscape:window-width="1207"
     inkscape:window-height="1028"
     id="namedview313"
     showgrid="false"
     fit-margin-top="0"
     fit-margin-left="0"
     fit-margin-right="0"
     fit-margin-bottom="0"
     inkscape:zoom="0.86915208"
     inkscape:cx="339.29231"
     inkscape:cy="322.73335"
     inkscape:window-x="77"
     inkscape:window-y="24"
     inkscape:window-maximized="0"
     inkscape:current-layer="svg311" />
  <defs
     id="defs4"
     style="stroke-linecap:butt;stroke-linejoin:round">
    <style
       type="text/css"
       id="style2">
*{stroke-linecap:butt;stroke-linejoin:round;}
  </style>
  </defs>
  <g
     id="patch_2"
     style="stroke-linecap:butt;stroke-linejoin:round"
     transform="translate(-42.550938,-75.12)">
    <path
       d="m 430.81337,286.42354 c 0,-43.47506 -16.84986,-85.30185 -46.98675,-116.6363 -30.1369,-31.33446 -71.27568,-49.80061 -114.71775,-51.49389 -43.44207,-1.69328 -85.89339,13.51471 -118.37785,42.40831 -32.48446,28.89361 -52.538895,69.28194 -55.922888,112.6251 l 167.747378,13.09678 z"
       style="fill:#0d0887;stroke:#ffffff;stroke-width:2;stroke-linecap:butt;stroke-linejoin:miter"
       id="path9"
       inkscape:connector-curvature="0" />
  </g>
  <g
     id="patch_3"
     style="stroke-linecap:butt;stroke-linejoin:round"
     transform="translate(-42.550938,-75.12)">
    <path
       d="m 94.808132,273.32676 c -2.517223,32.24132 4.313389,64.53489 19.670078,92.99559 15.35668,28.46071 38.59787,51.89953 66.92753,67.49665 28.32965,15.59712 60.56422,22.70093 92.8257,20.4568 32.26149,-2.24414 63.20208,-13.74246 89.09945,-33.11165 L 262.55551,286.42354 Z"
       style="fill:#5302a3;stroke:#ffffff;stroke-width:2;stroke-linecap:butt;stroke-linejoin:miter"
       id="path12"
       inkscape:connector-curvature="0" />
  </g>
  <g
     id="patch_4"
     style="stroke-linecap:butt;stroke-linejoin:round"
     transform="translate(-42.550938,-75.12)">
    <path
       d="m 375.80937,432.45106 c 8.68969,-6.4992 16.73032,-13.82382 24.00948,-21.87145 7.27916,-8.04762 13.76277,-16.78058 19.36018,-26.07678 L 275.03399,297.71046 Z"
       style="fill:#8b0aa5;stroke:#ffffff;stroke-width:2;stroke-linecap:butt;stroke-linejoin:miter"
       id="path15"
       inkscape:connector-curvature="0" />
  </g>
  <g
     id="patch_5"
     style="stroke-linecap:butt;stroke-linejoin:round"
     transform="translate(-42.550938,-75.12)">
    <path
       d="m 437.27356,387.27717 c 3.20924,-5.32991 6.12039,-10.83372 8.72004,-16.48607 2.59965,-5.65234 4.8838,-11.44453 6.84192,-17.34986 l -159.707,-52.95644 z"
       style="fill:#b83289;stroke:#ffffff;stroke-width:2;stroke-linecap:butt;stroke-linejoin:miter"
       id="path18"
       inkscape:connector-curvature="0" />
  </g>
  <g
     id="patch_6"
     style="stroke-linecap:butt;stroke-linejoin:round"
     transform="translate(-42.550938,-75.12)">
    <path
       d="m 455.05629,346.92955 c 1.65793,-5.00002 3.08014,-10.07515 4.26193,-15.2086 1.18179,-5.13346 2.12185,-10.31958 2.81709,-15.54123 L 295.34929,293.97311 Z"
       style="fill:#db5c68;stroke:#ffffff;stroke-width:2;stroke-linecap:butt;stroke-linejoin:miter"
       id="path21"
       inkscape:connector-curvature="0" />
  </g>
  <g
     id="patch_7"
     style="stroke-linecap:butt;stroke-linejoin:round"
     transform="translate(-42.550938,-75.12)">
    <path
       d="m 479.65323,312.71617 c 0.37997,-2.85384 0.68664,-5.71697 0.91969,-8.58655 0.23305,-2.86958 0.39241,-5.74468 0.47792,-8.62244 l -168.18362,-4.99762 z"
       style="fill:#f48849;stroke:#ffffff;stroke-width:2;stroke-linecap:butt;stroke-linejoin:miter"
       id="path24"
       inkscape:connector-curvature="0" />
  </g>
  <g
     id="patch_8"
     style="stroke-linecap:butt;stroke-linejoin:round"
     transform="translate(-42.550938,-75.12)">
    <path
       d="m 498.03485,292.4208 c 0.0247,-0.8327 0.0433,-1.66557 0.0557,-2.49855 0.0124,-0.83297 0.0186,-1.66602 0.0186,-2.49909 l -168.25786,1e-5 z"
       style="fill:#febd2a;stroke:#ffffff;stroke-width:2;stroke-linecap:butt;stroke-linejoin:miter"
       id="path27"
       inkscape:connector-curvature="0" />
  </g>
  <g
     id="matplotlib.axis_1"
     style="stroke-linecap:butt;stroke-linejoin:round"
     transform="translate(-42.550938,-75.12)" />
  <g
     id="legend_1"
     style="stroke-linecap:butt;stroke-linejoin:round"
     transform="translate(-42.550938,-75.12)">
    <g
       id="patch_9"
       style="stroke-linecap:butt;stroke-linejoin:round">
      <path
         d="M 45.650938,136.76469 H 509.3 q 2.6,0 2.6,-2.6 V 78.22 q 0,-2.6 -2.6,-2.6 H 45.650938 q -2.6,0 -2.6,2.6 v 55.94469 q 0,2.6 2.6,2.6 z"
         style="opacity:0.8;fill:#ffffff;stroke:#cccccc;stroke-linecap:butt;stroke-linejoin:miter"
         id="path66"
         inkscape:connector-curvature="0" />
    </g>
    <g
       id="patch_10"
       style="stroke-linecap:butt;stroke-linejoin:round">
      <path
         d="m 48.250938,90.697969 h 26 v -9.1 h -26 z"
         style="fill:#0d0887;stroke:#ffffff;stroke-width:2;stroke-linecap:butt;stroke-linejoin:miter"
         id="path69"
         inkscape:connector-curvature="0" />
    </g>
    <g
       id="text_2"
       style="stroke-linecap:butt;stroke-linejoin:round">
      <!-- Spruce/fir -->
      <defs
         id="defs78">
        <path
           d="m 53.515625,70.515625 v -9.625 q -5.609375,2.6875 -10.59375,4 -4.984375,1.328125 -9.625,1.328125 -8.046875,0 -12.421875,-3.125 -4.375,-3.125 -4.375,-8.890625 0,-4.84375 2.90625,-7.3125 2.90625,-2.453125 11.015625,-3.96875 L 36.375,41.703125 Q 47.40625,39.59375 52.65625,34.296875 57.90625,29 57.90625,20.125 q 0,-10.609375 -7.109375,-16.078125 -7.09375,-5.46875 -20.8125,-5.46875 -5.171875,0 -11.015625,1.171875 Q 13.140625,0.921875 6.890625,3.21875 V 13.375 q 6,-3.359375 11.765625,-5.078125 5.765625,-1.703125 11.328125,-1.703125 8.4375,0 13.03125,3.3125 4.59375,3.328125 4.59375,9.484375 0,5.359375 -3.296875,8.390625 Q 41.015625,30.8125 33.5,32.328125 L 27.484375,33.5 q -11.03125,2.1875 -15.96875,6.875 -4.921875,4.6875 -4.921875,13.046875 0,9.671875 6.8125,15.234375 6.8125,5.5625 18.765625,5.5625 5.140625,0 10.453125,-0.9375 5.328125,-0.921875 10.890625,-2.765625 z"
           id="DejaVuSans-53"
           inkscape:connector-curvature="0"
           style="stroke-linecap:butt;stroke-linejoin:round" />
        <path
           d="M 8.5,21.578125 V 54.6875 h 8.984375 V 21.921875 q 0,-7.765625 3.015625,-11.65625 3.03125,-3.875 9.09375,-3.875 7.265625,0 11.484375,4.640625 4.234375,4.640625 4.234375,12.65625 v 31 h 8.984375 V 0 H 45.3125 V 8.40625 Q 42.046875,3.421875 37.71875,1 33.40625,-1.421875 27.6875,-1.421875 18.265625,-1.421875 13.375,4.4375 8.5,10.296875 8.5,21.578125 Z M 31.109375,56 Z"
           id="DejaVuSans-75"
           inkscape:connector-curvature="0"
           style="stroke-linecap:butt;stroke-linejoin:round" />
        <path
           d="M 48.78125,52.59375 V 44.1875 q -3.8125,2.109375 -7.640625,3.15625 -3.828125,1.046875 -7.734375,1.046875 -8.75,0 -13.59375,-5.546875 -4.828125,-5.53125 -4.828125,-15.546875 0,-10.015625 4.828125,-15.5625 4.84375,-5.53125 13.59375,-5.53125 3.90625,0 7.734375,1.046875 3.828125,1.046875 7.640625,3.15625 v -8.3125 q -3.765625,-1.75 -7.796875,-2.625 -4.015625,-0.890625 -8.5625,-0.890625 -12.359375,0 -19.640625,7.765625 -7.265625,7.765625 -7.265625,20.953125 0,13.375 7.34375,21.03125 Q 20.21875,56 33.015625,56 q 4.140625,0 8.09375,-0.859375 3.953125,-0.84375 7.671875,-2.546875 z"
           id="DejaVuSans-63"
           inkscape:connector-curvature="0"
           style="stroke-linecap:butt;stroke-linejoin:round" />
        <path
           d="M 25.390625,72.90625 H 33.6875 L 8.296875,-9.28125 H 0 Z"
           id="DejaVuSans-2f"
           inkscape:connector-curvature="0"
           style="stroke-linecap:butt;stroke-linejoin:round" />
        <path
           d="M 37.109375,75.984375 V 68.5 h -8.59375 q -4.828125,0 -6.71875,-1.953125 -1.875,-1.953125 -1.875,-7.03125 V 54.6875 H 34.71875 V 47.703125 H 19.921875 V 0 h -9.03125 V 47.703125 H 2.296875 V 54.6875 h 8.59375 V 58.5 q 0,9.125 4.25,13.296875 4.25,4.1875 13.46875,4.1875 z"
           id="DejaVuSans-66"
           inkscape:connector-curvature="0"
           style="stroke-linecap:butt;stroke-linejoin:round" />
        <path
           d="M 9.421875,54.6875 H 18.40625 V 0 H 9.421875 Z m 0,21.296875 H 18.40625 V 64.59375 H 9.421875 Z"
           id="DejaVuSans-69"
           inkscape:connector-curvature="0"
           style="stroke-linecap:butt;stroke-linejoin:round" />
      </defs>
      <g
         transform="matrix(0.13,0,0,-0.13,84.650938,90.697969)"
         id="g100"
         style="stroke-linecap:butt;stroke-linejoin:round">
        <use
           xlink:href="#DejaVuSans-53"
           id="use80"
           style="stroke-linecap:butt;stroke-linejoin:round"
           x="0"
           y="0"
           width="100%"
           height="100%" />
        <path
           style="stroke-linecap:butt;stroke-linejoin:round"
           inkscape:connector-curvature="0"
           id="use82"
           d="m 81.585937,8.203125 v -29 h -9.03125 V 54.6875 h 9.03125 v -8.296875 q 2.84375,4.875 7.15625,7.234375 Q 93.070312,56 99.070312,56 q 9.968748,0 16.187498,-7.90625 6.23438,-7.90625 6.23438,-20.796875 0,-12.890625 -6.23438,-20.8125 -6.21875,-7.90625 -16.187498,-7.90625 -6,0 -10.328125,2.375 -4.3125,2.375 -7.15625,7.25 z m 30.578123,19.09375 q 0,9.90625 -4.07812,15.546875 -4.07813,5.640625 -11.203128,5.640625 -7.140625,0 -11.21875,-5.640625 -4.078125,-5.640625 -4.078125,-15.546875 0,-9.90625 4.078125,-15.546875 4.078125,-5.640625 11.21875,-5.640625 7.124998,0 11.203128,5.640625 4.07812,5.640625 4.07812,15.546875 z" />
        <path
           style="stroke-linecap:butt;stroke-linejoin:round"
           inkscape:connector-curvature="0"
           id="use84"
           d="m 168.06249,46.296875 q -1.51562,0.875 -3.29687,1.28125 Q 162.98437,48 160.84374,48 153.21874,48 149.14062,43.046875 145.06249,38.09375 145.06249,28.8125 V 0 h -9.03125 v 54.6875 h 9.03125 v -8.5 q 2.84375,4.984375 7.375,7.390625 Q 156.98437,56 163.48437,56 q 0.92187,0 2.04687,-0.125 1.125,-0.109375 2.48438,-0.359375 z" />
        <use
           x="168.06641"
           xlink:href="#DejaVuSans-75"
           id="use86"
           style="stroke-linecap:butt;stroke-linejoin:round"
           y="0"
           width="100%"
           height="100%" />
        <use
           x="231.44531"
           xlink:href="#DejaVuSans-63"
           id="use88"
           style="stroke-linecap:butt;stroke-linejoin:round"
           y="0"
           width="100%"
           height="100%" />
        <path
           style="stroke-linecap:butt;stroke-linejoin:round"
           inkscape:connector-curvature="0"
           id="use90"
           d="m 342.62891,29.59375 v -4.390625 h -41.3125 q 0.59375,-9.28125 5.59375,-14.140625 5,-4.859375 13.9375,-4.859375 5.17187,0 10.03125,1.265625 4.85937,1.265625 9.65625,3.8125 v -8.5 q -4.84375,-2.046875 -9.92188,-3.125 -5.07812,-1.078125 -10.29687,-1.078125 -13.09375,0 -20.73438,7.609375 -7.64062,7.625 -7.64062,20.625 0,13.421875 7.25,21.296875 Q 306.44141,56 318.75391,56 q 11.03125,0 17.45312,-7.109375 6.42188,-7.09375 6.42188,-19.296875 z m -8.98438,2.640625 q -0.0937,7.359375 -4.125,11.75 -4.03125,4.40625 -10.67187,4.40625 -7.51563,0 -12.03125,-4.25 -4.51563,-4.25 -5.20313,-11.96875 z" />
        <use
           x="347.94922"
           xlink:href="#DejaVuSans-2f"
           id="use92"
           style="stroke-linecap:butt;stroke-linejoin:round"
           y="0"
           width="100%"
           height="100%" />
        <use
           x="381.64062"
           xlink:href="#DejaVuSans-66"
           id="use94"
           style="stroke-linecap:butt;stroke-linejoin:round"
           y="0"
           width="100%"
           height="100%" />
        <use
           x="416.8457"
           xlink:href="#DejaVuSans-69"
           id="use96"
           style="stroke-linecap:butt;stroke-linejoin:round"
           y="0"
           width="100%"
           height="100%" />
        <path
           style="stroke-linecap:butt;stroke-linejoin:round"
           inkscape:connector-curvature="0"
           id="use98"
           d="m 485.73828,46.296875 q -1.51562,0.875 -3.29687,1.28125 Q 480.66016,48 478.51953,48 470.89453,48 466.81641,43.046875 462.73828,38.09375 462.73828,28.8125 V 0 h -9.03125 v 54.6875 h 9.03125 v -8.5 q 2.84375,4.984375 7.375,7.390625 Q 474.66016,56 481.16016,56 q 0.92187,0 2.04687,-0.125 1.125,-0.109375 2.48438,-0.359375 z" />
      </g>
    </g>
    <g
       id="patch_11"
       style="stroke-linecap:butt;stroke-linejoin:round">
      <path
         d="m 48.250938,109.77953 h 26 v -9.1 h -26 z"
         style="fill:#5302a3;stroke:#ffffff;stroke-width:2;stroke-linecap:butt;stroke-linejoin:miter"
         id="path103"
         inkscape:connector-curvature="0" />
    </g>
    <g
       id="text_3"
       style="stroke-linecap:butt;stroke-linejoin:round">
      <!-- Lodgepole pine -->
      <defs
         id="defs112">
        <path
           d="m 9.8125,72.90625 h 9.859375 V 8.296875 h 35.5 V 0 H 9.8125 Z"
           id="DejaVuSans-4c"
           inkscape:connector-curvature="0"
           style="stroke-linecap:butt;stroke-linejoin:round" />
        <path
           d="m 45.40625,46.390625 v 29.59375 h 8.984375 V 0 H 45.40625 v 8.203125 q -2.828125,-4.875 -7.15625,-7.25 -4.3125,-2.375 -10.375,-2.375 -9.90625,0 -16.140625,7.90625 -6.21875,7.921875 -6.21875,20.8125 0,12.890625 6.21875,20.796875 Q 17.96875,56 27.875,56 q 6.0625,0 10.375,-2.375 4.328125,-2.359375 7.15625,-7.234375 z M 14.796875,27.296875 q 0,-9.90625 4.078125,-15.546875 4.078125,-5.640625 11.203125,-5.640625 7.125,0 11.21875,5.640625 4.109375,5.640625 4.109375,15.546875 0,9.90625 -4.109375,15.546875 -4.09375,5.640625 -11.21875,5.640625 -7.125,0 -11.203125,-5.640625 -4.078125,-5.640625 -4.078125,-15.546875 z"
           id="DejaVuSans-64"
           inkscape:connector-curvature="0"
           style="stroke-linecap:butt;stroke-linejoin:round" />
        <path
           d="m 45.40625,27.984375 q 0,9.765625 -4.03125,15.125 -4.015625,5.375 -11.296875,5.375 -7.21875,0 -11.25,-5.375 -4.03125,-5.359375 -4.03125,-15.125 0,-9.71875 4.03125,-15.09375 4.03125,-5.375 11.25,-5.375 7.28125,0 11.296875,5.375 4.03125,5.375 4.03125,15.09375 z M 54.390625,6.78125 q 0,-13.953125 -6.203125,-20.765625 -6.1875,-6.8125 -18.984375,-6.8125 -4.734375,0 -8.9375,0.703125 -4.203125,0.703125 -8.15625,2.171875 V -9.1875 q 3.953125,-2.140625 7.8125,-3.15625 3.859375,-1.03125 7.859375,-1.03125 8.84375,0 13.234375,4.609375 4.390625,4.609375 4.390625,13.9375 V 9.625 Q 42.625,4.78125 38.28125,2.390625 33.9375,0 27.875,0 17.828125,0 11.671875,7.65625 q -6.15625,7.671875 -6.15625,20.328125 0,12.6875 6.15625,20.34375 Q 17.828125,56 27.875,56 q 6.0625,0 10.40625,-2.390625 4.34375,-2.390625 7.125,-7.21875 V 54.6875 h 8.984375 z"
           id="DejaVuSans-67"
           inkscape:connector-curvature="0"
           style="stroke-linecap:butt;stroke-linejoin:round" />
        <path
           d="M 9.421875,75.984375 H 18.40625 V 0 H 9.421875 Z"
           id="DejaVuSans-6c"
           inkscape:connector-curvature="0"
           style="stroke-linecap:butt;stroke-linejoin:round" />
        <path
           id="DejaVuSans-20"
           d=""
           inkscape:connector-curvature="0"
           style="stroke-linecap:butt;stroke-linejoin:round" />
        <path
           d="M 54.890625,33.015625 V 0 H 45.90625 v 32.71875 q 0,7.765625 -3.03125,11.609375 -3.03125,3.859375 -9.078125,3.859375 -7.28125,0 -11.484375,-4.640625 -4.203125,-4.625 -4.203125,-12.640625 V 0 h -9.03125 v 54.6875 h 9.03125 v -8.5 q 3.234375,4.9375 7.59375,7.375 4.375,2.4375 10.09375,2.4375 9.421875,0 14.25,-5.828125 4.84375,-5.828125 4.84375,-17.15625 z"
           id="DejaVuSans-6e"
           inkscape:connector-curvature="0"
           style="stroke-linecap:butt;stroke-linejoin:round" />
      </defs>
      <g
         transform="matrix(0.13,0,0,-0.13,84.650938,109.77953)"
         id="g142"
         style="stroke-linecap:butt;stroke-linejoin:round">
        <use
           xlink:href="#DejaVuSans-4c"
           id="use114"
           style="stroke-linecap:butt;stroke-linejoin:round"
           x="0"
           y="0"
           width="100%"
           height="100%" />
        <path
           style="stroke-linecap:butt;stroke-linejoin:round"
           inkscape:connector-curvature="0"
           id="use116"
           d="m 86.306641,48.390625 q -7.21875,0 -11.421875,-5.640625 -4.203125,-5.640625 -4.203125,-15.453125 0,-9.8125 4.171875,-15.453125 4.1875,-5.640625 11.453125,-5.640625 7.1875,0 11.375,5.65625 4.203129,5.671875 4.203129,15.4375 0,9.71875 -4.203129,15.40625 -4.1875,5.6875 -11.375,5.6875 z m 0,7.609375 q 11.71875,0 18.406249,-7.625 6.70313,-7.609375 6.70313,-21.078125 0,-13.421875 -6.70313,-21.078125 -6.687499,-7.640625 -18.406249,-7.640625 -11.765625,0 -18.4375,7.640625 -6.65625,7.65625 -6.65625,21.078125 0,13.46875 6.65625,21.078125 Q 74.541016,56 86.306641,56 Z" />
        <use
           x="116.87891"
           xlink:href="#DejaVuSans-64"
           id="use118"
           style="stroke-linecap:butt;stroke-linejoin:round"
           y="0"
           width="100%"
           height="100%" />
        <use
           x="180.35547"
           xlink:href="#DejaVuSans-67"
           id="use120"
           style="stroke-linecap:butt;stroke-linejoin:round"
           y="0"
           width="100%"
           height="100%" />
        <path
           style="stroke-linecap:butt;stroke-linejoin:round"
           inkscape:connector-curvature="0"
           id="use122"
           d="m 300.03516,29.59375 v -4.390625 h -41.3125 q 0.59375,-9.28125 5.59375,-14.140625 5,-4.859375 13.9375,-4.859375 5.17187,0 10.03125,1.265625 4.85937,1.265625 9.65625,3.8125 v -8.5 q -4.84375,-2.046875 -9.92188,-3.125 -5.07812,-1.078125 -10.29687,-1.078125 -13.09375,0 -20.73438,7.609375 -7.64062,7.625 -7.64062,20.625 0,13.421875 7.25,21.296875 Q 263.84766,56 276.16016,56 q 11.03125,0 17.45312,-7.109375 6.42188,-7.09375 6.42188,-19.296875 z m -8.98438,2.640625 q -0.0937,7.359375 -4.125,11.75 -4.03125,4.40625 -10.67187,4.40625 -7.51563,0 -12.03125,-4.25 -4.51563,-4.25 -5.20313,-11.96875 z" />
        <path
           style="stroke-linecap:butt;stroke-linejoin:round"
           inkscape:connector-curvature="0"
           id="use124"
           d="m 323.46484,8.203125 v -29 h -9.03125 V 54.6875 h 9.03125 v -8.296875 q 2.84375,4.875 7.15625,7.234375 4.32813,2.375 10.32813,2.375 9.96875,0 16.1875,-7.90625 6.23437,-7.90625 6.23437,-20.796875 0,-12.890625 -6.23437,-20.8125 -6.21875,-7.90625 -16.1875,-7.90625 -6,0 -10.32813,2.375 -4.3125,2.375 -7.15625,7.25 z m 30.57813,19.09375 q 0,9.90625 -4.07813,15.546875 -4.07812,5.640625 -11.20312,5.640625 -7.14063,0 -11.21875,-5.640625 -4.07813,-5.640625 -4.07813,-15.546875 0,-9.90625 4.07813,-15.546875 4.07812,-5.640625 11.21875,-5.640625 7.125,0 11.20312,5.640625 4.07813,5.640625 4.07813,15.546875 z" />
        <path
           style="stroke-linecap:butt;stroke-linejoin:round"
           inkscape:connector-curvature="0"
           id="use126"
           d="m 399.44141,48.390625 q -7.21875,0 -11.42188,-5.640625 -4.20312,-5.640625 -4.20312,-15.453125 0,-9.8125 4.17187,-15.453125 4.1875,-5.640625 11.45313,-5.640625 7.1875,0 11.375,5.65625 4.20312,5.671875 4.20312,15.4375 0,9.71875 -4.20312,15.40625 -4.1875,5.6875 -11.375,5.6875 z m 0,7.609375 q 11.71875,0 18.40625,-7.625 6.70312,-7.609375 6.70312,-21.078125 0,-13.421875 -6.70312,-21.078125 -6.6875,-7.640625 -18.40625,-7.640625 -11.76563,0 -18.4375,7.640625 -6.65625,7.65625 -6.65625,21.078125 0,13.46875 6.65625,21.078125 6.67187,7.625 18.4375,7.625 z" />
        <use
           x="430.01367"
           xlink:href="#DejaVuSans-6c"
           id="use128"
           style="stroke-linecap:butt;stroke-linejoin:round"
           y="0"
           width="100%"
           height="100%" />
        <path
           style="stroke-linecap:butt;stroke-linejoin:round"
           inkscape:connector-curvature="0"
           id="use130"
           d="m 514,29.59375 v -4.390625 h -41.3125 q 0.59375,-9.28125 5.59375,-14.140625 5,-4.859375 13.9375,-4.859375 5.17187,0 10.03125,1.265625 4.85937,1.265625 9.65625,3.8125 v -8.5 q -4.84375,-2.046875 -9.92188,-3.125 -5.07812,-1.078125 -10.29687,-1.078125 -13.09375,0 -20.73438,7.609375 -7.64062,7.625 -7.64062,20.625 0,13.421875 7.25,21.296875 Q 477.8125,56 490.125,56 501.15625,56 507.57812,48.890625 514,41.796875 514,29.59375 Z m -8.98438,2.640625 q -0.0937,7.359375 -4.125,11.75 -4.03125,4.40625 -10.67187,4.40625 -7.51563,0 -12.03125,-4.25 -4.51563,-4.25 -5.20313,-11.96875 z" />
        <use
           x="519.32031"
           xlink:href="#DejaVuSans-20"
           id="use132"
           style="stroke-linecap:butt;stroke-linejoin:round"
           y="0"
           width="100%"
           height="100%" />
        <path
           style="stroke-linecap:butt;stroke-linejoin:round"
           inkscape:connector-curvature="0"
           id="use134"
           d="m 569.2168,8.203125 v -29 h -9.03125 V 54.6875 h 9.03125 v -8.296875 q 2.84375,4.875 7.15625,7.234375 4.32812,2.375 10.32812,2.375 9.96875,0 16.1875,-7.90625 6.23438,-7.90625 6.23438,-20.796875 0,-12.890625 -6.23438,-20.8125 -6.21875,-7.90625 -16.1875,-7.90625 -6,0 -10.32812,2.375 -4.3125,2.375 -7.15625,7.25 z m 30.57812,19.09375 q 0,9.90625 -4.07812,15.546875 -4.07813,5.640625 -11.20313,5.640625 -7.14062,0 -11.21875,-5.640625 -4.07812,-5.640625 -4.07812,-15.546875 0,-9.90625 4.07812,-15.546875 4.07813,-5.640625 11.21875,-5.640625 7.125,0 11.20313,5.640625 4.07812,5.640625 4.07812,15.546875 z" />
        <use
           x="614.58398"
           xlink:href="#DejaVuSans-69"
           id="use136"
           style="stroke-linecap:butt;stroke-linejoin:round"
           y="0"
           width="100%"
           height="100%" />
        <use
           x="642.36719"
           xlink:href="#DejaVuSans-6e"
           id="use138"
           style="stroke-linecap:butt;stroke-linejoin:round"
           y="0"
           width="100%"
           height="100%" />
        <path
           style="stroke-linecap:butt;stroke-linejoin:round"
           inkscape:connector-curvature="0"
           id="use140"
           d="m 761.94922,29.59375 v -4.390625 h -41.3125 q 0.59375,-9.28125 5.59375,-14.140625 5,-4.859375 13.9375,-4.859375 5.17187,0 10.03125,1.265625 4.85937,1.265625 9.65625,3.8125 v -8.5 q -4.84375,-2.046875 -9.92188,-3.125 -5.07812,-1.078125 -10.29687,-1.078125 -13.09375,0 -20.73438,7.609375 -7.64062,7.625 -7.64062,20.625 0,13.421875 7.25,21.296875 Q 725.76172,56 738.07422,56 q 11.03125,0 17.45312,-7.109375 6.42188,-7.09375 6.42188,-19.296875 z m -8.98438,2.640625 q -0.0937,7.359375 -4.125,11.75 -4.03125,4.40625 -10.67187,4.40625 -7.51563,0 -12.03125,-4.25 -4.51563,-4.25 -5.20313,-11.96875 z" />
      </g>
    </g>
    <g
       id="patch_12"
       style="stroke-linecap:butt;stroke-linejoin:round">
      <path
         d="m 48.250938,128.86109 h 26 v -9.1 h -26 z"
         style="fill:#8b0aa5;stroke:#ffffff;stroke-width:2;stroke-linecap:butt;stroke-linejoin:miter"
         id="path145"
         inkscape:connector-curvature="0" />
    </g>
    <g
       id="text_4"
       style="stroke-linecap:butt;stroke-linejoin:round">
      <!-- Ponderosa pine -->
      <defs
         id="defs151">
        <path
           d="M 19.671875,64.796875 V 37.40625 h 12.40625 q 6.890625,0 10.640625,3.5625 3.765625,3.5625 3.765625,10.15625 0,6.546875 -3.765625,10.109375 -3.75,3.5625 -10.640625,3.5625 z M 9.8125,72.90625 h 22.265625 q 12.265625,0 18.53125,-5.546875 6.28125,-5.546875 6.28125,-16.234375 0,-10.796875 -6.28125,-16.3125 -6.265625,-5.515625 -18.53125,-5.515625 H 19.671875 V 0 H 9.8125 Z"
           id="DejaVuSans-50"
           inkscape:connector-curvature="0"
           style="stroke-linecap:butt;stroke-linejoin:round" />
        <path
           d="m 44.28125,53.078125 v -8.5 Q 40.484375,46.53125 36.375,47.5 q -4.09375,0.984375 -8.5,0.984375 -6.6875,0 -10.03125,-2.046875 Q 14.5,44.390625 14.5,40.28125 q 0,-3.125 2.390625,-4.90625 2.390625,-1.78125 9.625,-3.390625 l 3.078125,-0.6875 Q 39.15625,29.25 43.1875,25.515625 47.21875,21.78125 47.21875,15.09375 q 0,-7.625 -6.03125,-12.078125 -6.03125,-4.4375 -16.578125,-4.4375 -4.390625,0 -9.15625,0.859375 Q 10.6875,0.296875 5.421875,2 v 9.28125 q 4.984375,-2.59375 9.8125,-3.890625 4.828125,-1.28125 9.578125,-1.28125 6.34375,0 9.75,2.171875 3.421875,2.171875 3.421875,6.125 0,3.65625 -2.46875,5.609375 -2.453125,1.953125 -10.8125,3.765625 l -3.125,0.734375 q -8.34375,1.75 -12.0625,5.390625 -3.703125,3.640625 -3.703125,9.984375 0,7.71875 5.46875,11.90625 Q 16.75,56 26.8125,56 q 4.96875,0 9.359375,-0.734375 4.40625,-0.71875 8.109375,-2.1875 z"
           id="DejaVuSans-73"
           inkscape:connector-curvature="0"
           style="stroke-linecap:butt;stroke-linejoin:round" />
        <path
           d="m 34.28125,27.484375 q -10.890625,0 -15.09375,-2.484375 -4.203125,-2.484375 -4.203125,-8.5 0,-4.78125 3.15625,-7.59375 3.15625,-2.796875 8.5625,-2.796875 7.484375,0 12,5.296875 4.515625,5.296875 4.515625,14.078125 v 2 z m 17.921875,3.71875 V 0 H 43.21875 v 8.296875 q -3.078125,-4.96875 -7.671875,-7.34375 -4.59375,-2.375 -11.234375,-2.375 -8.390625,0 -13.359375,4.71875 Q 6,8.015625 6,15.921875 q 0,9.21875 6.171875,13.90625 6.1875,4.6875 18.4375,4.6875 H 43.21875 v 0.890625 q 0,6.203125 -4.078125,9.59375 -4.078125,3.390625 -11.453125,3.390625 -4.6875,0 -9.140625,-1.125 -4.4375,-1.125 -8.53125,-3.375 v 8.3125 q 4.921875,1.90625 9.5625,2.84375 Q 24.21875,56 28.609375,56 q 11.875,0 17.734375,-6.15625 5.859375,-6.140625 5.859375,-18.640625 z"
           id="DejaVuSans-61"
           inkscape:connector-curvature="0"
           style="stroke-linecap:butt;stroke-linejoin:round" />
      </defs>
      <g
         transform="matrix(0.13,0,0,-0.13,84.650938,128.86109)"
         id="g181"
         style="stroke-linecap:butt;stroke-linejoin:round">
        <use
           xlink:href="#DejaVuSans-50"
           id="use153"
           style="stroke-linecap:butt;stroke-linejoin:round"
           x="0"
           y="0"
           width="100%"
           height="100%" />
        <path
           style="stroke-linecap:butt;stroke-linejoin:round"
           inkscape:connector-curvature="0"
           id="use155"
           d="m 90.865234,48.390625 q -7.21875,0 -11.421875,-5.640625 -4.203125,-5.640625 -4.203125,-15.453125 0,-9.8125 4.171875,-15.453125 4.1875,-5.640625 11.453125,-5.640625 7.1875,0 11.374996,5.65625 4.20313,5.671875 4.20313,15.4375 0,9.71875 -4.20313,15.40625 -4.187496,5.6875 -11.374996,5.6875 z m 0,7.609375 q 11.718746,0 18.406246,-7.625 6.70313,-7.609375 6.70313,-21.078125 0,-13.421875 -6.70313,-21.078125 -6.6875,-7.640625 -18.406246,-7.640625 -11.765625,0 -18.4375,7.640625 -6.65625,7.65625 -6.65625,21.078125 0,13.46875 6.65625,21.078125 Q 79.099609,56 90.865234,56 Z" />
        <use
           x="121.4375"
           xlink:href="#DejaVuSans-6e"
           id="use157"
           style="stroke-linecap:butt;stroke-linejoin:round"
           y="0"
           width="100%"
           height="100%" />
        <use
           x="184.81641"
           xlink:href="#DejaVuSans-64"
           id="use159"
           style="stroke-linecap:butt;stroke-linejoin:round"
           y="0"
           width="100%"
           height="100%" />
        <path
           style="stroke-linecap:butt;stroke-linejoin:round"
           inkscape:connector-curvature="0"
           id="use161"
           d="m 304.49609,29.59375 v -4.390625 h -41.3125 q 0.59375,-9.28125 5.59375,-14.140625 5,-4.859375 13.9375,-4.859375 5.17188,0 10.03125,1.265625 4.85938,1.265625 9.65625,3.8125 v -8.5 q -4.84375,-2.046875 -9.92187,-3.125 -5.07813,-1.078125 -10.29688,-1.078125 -13.09375,0 -20.73437,7.609375 -7.64063,7.625 -7.64063,20.625 0,13.421875 7.25,21.296875 Q 268.30859,56 280.62109,56 q 11.03125,0 17.45313,-7.109375 6.42187,-7.09375 6.42187,-19.296875 z m -8.98437,2.640625 q -0.0937,7.359375 -4.125,11.75 -4.03125,4.40625 -10.67188,4.40625 -7.51562,0 -12.03125,-4.25 -4.51562,-4.25 -5.20312,-11.96875 z" />
        <path
           style="stroke-linecap:butt;stroke-linejoin:round"
           inkscape:connector-curvature="0"
           id="use163"
           d="m 350.92578,46.296875 q -1.51562,0.875 -3.29687,1.28125 Q 345.84766,48 343.70703,48 336.08203,48 332.00391,43.046875 327.92578,38.09375 327.92578,28.8125 V 0 h -9.03125 v 54.6875 h 9.03125 v -8.5 q 2.84375,4.984375 7.375,7.390625 Q 339.84766,56 346.34766,56 q 0.92187,0 2.04687,-0.125 1.125,-0.109375 2.48438,-0.359375 z" />
        <path
           style="stroke-linecap:butt;stroke-linejoin:round"
           inkscape:connector-curvature="0"
           id="use165"
           d="m 381.50781,48.390625 q -7.21875,0 -11.42187,-5.640625 -4.20313,-5.640625 -4.20313,-15.453125 0,-9.8125 4.17188,-15.453125 4.1875,-5.640625 11.45312,-5.640625 7.1875,0 11.375,5.65625 4.20313,5.671875 4.20313,15.4375 0,9.71875 -4.20313,15.40625 -4.1875,5.6875 -11.375,5.6875 z m 0,7.609375 q 11.71875,0 18.40625,-7.625 6.70313,-7.609375 6.70313,-21.078125 0,-13.421875 -6.70313,-21.078125 -6.6875,-7.640625 -18.40625,-7.640625 -11.76562,0 -18.4375,7.640625 -6.65625,7.65625 -6.65625,21.078125 0,13.46875 6.65625,21.078125 6.67188,7.625 18.4375,7.625 z" />
        <use
           x="412.08008"
           xlink:href="#DejaVuSans-73"
           id="use167"
           style="stroke-linecap:butt;stroke-linejoin:round"
           y="0"
           width="100%"
           height="100%" />
        <use
           x="464.17969"
           xlink:href="#DejaVuSans-61"
           id="use169"
           style="stroke-linecap:butt;stroke-linejoin:round"
           y="0"
           width="100%"
           height="100%" />
        <use
           x="525.45898"
           xlink:href="#DejaVuSans-20"
           id="use171"
           style="stroke-linecap:butt;stroke-linejoin:round"
           y="0"
           width="100%"
           height="100%" />
        <path
           style="stroke-linecap:butt;stroke-linejoin:round"
           inkscape:connector-curvature="0"
           id="use173"
           d="m 575.35547,8.203125 v -29 h -9.03125 V 54.6875 h 9.03125 v -8.296875 q 2.84375,4.875 7.15625,7.234375 4.32812,2.375 10.32812,2.375 9.96875,0 16.1875,-7.90625 6.23438,-7.90625 6.23438,-20.796875 0,-12.890625 -6.23438,-20.8125 -6.21875,-7.90625 -16.1875,-7.90625 -6,0 -10.32812,2.375 -4.3125,2.375 -7.15625,7.25 z m 30.57812,19.09375 q 0,9.90625 -4.07812,15.546875 -4.07813,5.640625 -11.20313,5.640625 -7.14062,0 -11.21875,-5.640625 -4.07812,-5.640625 -4.07812,-15.546875 0,-9.90625 4.07812,-15.546875 4.07813,-5.640625 11.21875,-5.640625 7.125,0 11.20313,5.640625 4.07812,5.640625 4.07812,15.546875 z" />
        <use
           x="620.72266"
           xlink:href="#DejaVuSans-69"
           id="use175"
           style="stroke-linecap:butt;stroke-linejoin:round"
           y="0"
           width="100%"
           height="100%" />
        <use
           x="648.50586"
           xlink:href="#DejaVuSans-6e"
           id="use177"
           style="stroke-linecap:butt;stroke-linejoin:round"
           y="0"
           width="100%"
           height="100%" />
        <path
           style="stroke-linecap:butt;stroke-linejoin:round"
           inkscape:connector-curvature="0"
           id="use179"
           d="m 768.08789,29.59375 v -4.390625 h -41.3125 q 0.59375,-9.28125 5.59375,-14.140625 5,-4.859375 13.9375,-4.859375 5.17188,0 10.03125,1.265625 4.85938,1.265625 9.65625,3.8125 v -8.5 q -4.84375,-2.046875 -9.92187,-3.125 -5.07813,-1.078125 -10.29688,-1.078125 -13.09375,0 -20.73437,7.609375 -7.64063,7.625 -7.64063,20.625 0,13.421875 7.25,21.296875 Q 731.90039,56 744.21289,56 q 11.03125,0 17.45313,-7.109375 6.42187,-7.09375 6.42187,-19.296875 z m -8.98437,2.640625 q -0.0937,7.359375 -4.125,11.75 -4.03125,4.40625 -10.67188,4.40625 -7.51562,0 -12.03125,-4.25 -4.51562,-4.25 -5.20312,-11.96875 z" />
      </g>
    </g>
    <g
       id="patch_13"
       style="stroke-linecap:butt;stroke-linejoin:round">
      <path
         d="m 211.19578,90.697969 h 26 v -9.1 h -26 z"
         style="fill:#b83289;stroke:#ffffff;stroke-width:2;stroke-linecap:butt;stroke-linejoin:miter"
         id="path184"
         inkscape:connector-curvature="0" />
    </g>
    <g
       id="text_5"
       style="stroke-linecap:butt;stroke-linejoin:round">
      <!-- Cottonwood/willow -->
      <defs
         id="defs188">
        <path
           d="M 4.203125,54.6875 H 13.1875 L 24.421875,12.015625 35.59375,54.6875 H 46.1875 L 57.421875,12.015625 68.609375,54.6875 H 77.59375 L 63.28125,0 H 52.6875 L 40.921875,44.828125 29.109375,0 H 18.5 Z"
           id="DejaVuSans-77"
           inkscape:connector-curvature="0"
           style="stroke-linecap:butt;stroke-linejoin:round" />
      </defs>
      <g
         transform="matrix(0.13,0,0,-0.13,247.59578,90.697969)"
         id="g224"
         style="stroke-linecap:butt;stroke-linejoin:round">
        <path
           style="stroke-linecap:butt;stroke-linejoin:round"
           inkscape:connector-curvature="0"
           id="use190"
           d="M 64.40625,67.28125 V 56.890625 q -4.984375,4.640625 -10.625,6.921875 -5.640625,2.296875 -11.984375,2.296875 -12.5,0 -19.140625,-7.640625 -6.640625,-7.640625 -6.640625,-22.09375 0,-14.40625 6.640625,-22.046875 Q 29.296875,6.6875 41.796875,6.6875 q 6.34375,0 11.984375,2.296875 5.640625,2.296875 10.625,6.9375 V 5.609375 Q 59.234375,2.09375 53.4375,0.328125 q -5.78125,-1.75 -12.21875,-1.75 -16.5625,0 -26.09375,10.125 Q 5.609375,18.84375 5.609375,36.375 q 0,17.578125 9.515625,27.703125 9.53125,10.140625 26.09375,10.140625 6.53125,0 12.3125,-1.734375 5.796875,-1.734375 10.875,-5.203125 z" />
        <path
           style="stroke-linecap:butt;stroke-linejoin:round"
           inkscape:connector-curvature="0"
           id="use192"
           d="m 100.43359,48.390625 q -7.218746,0 -11.421871,-5.640625 -4.203125,-5.640625 -4.203125,-15.453125 0,-9.8125 4.171875,-15.453125 4.1875,-5.640625 11.453121,-5.640625 7.1875,0 11.375,5.65625 4.20313,5.671875 4.20313,15.4375 0,9.71875 -4.20313,15.40625 -4.1875,5.6875 -11.375,5.6875 z m 0,7.609375 q 11.71875,0 18.40625,-7.625 6.70313,-7.609375 6.70313,-21.078125 0,-13.421875 -6.70313,-21.078125 -6.6875,-7.640625 -18.40625,-7.640625 -11.765621,0 -18.437496,7.640625 -6.65625,7.65625 -6.65625,21.078125 0,13.46875 6.65625,21.078125 Q 88.667969,56 100.43359,56 Z" />
        <path
           style="stroke-linecap:butt;stroke-linejoin:round"
           inkscape:connector-curvature="0"
           id="use194"
           d="M 149.31836,70.21875 V 54.6875 h 18.5 v -6.984375 h -18.5 v -29.6875 q 0,-6.6875 1.82812,-8.59375 1.82813,-1.90625 7.45313,-1.90625 h 9.21875 V 0 h -9.21875 q -10.40625,0 -14.35938,3.875 -3.95312,3.890625 -3.95312,14.140625 v 29.6875 h -6.59375 V 54.6875 h 6.59375 v 15.53125 z" />
        <path
           style="stroke-linecap:butt;stroke-linejoin:round"
           inkscape:connector-curvature="0"
           id="use196"
           d="M 188.52734,70.21875 V 54.6875 h 18.5 v -6.984375 h -18.5 v -29.6875 q 0,-6.6875 1.82813,-8.59375 1.82812,-1.90625 7.45312,-1.90625 h 9.21875 V 0 h -9.21875 q -10.40625,0 -14.35937,3.875 -3.95313,3.890625 -3.95313,14.140625 v 29.6875 h -6.59375 V 54.6875 h 6.59375 v 15.53125 z" />
        <path
           style="stroke-linecap:butt;stroke-linejoin:round"
           inkscape:connector-curvature="0"
           id="use198"
           d="m 240.0332,48.390625 q -7.21875,0 -11.42187,-5.640625 -4.20313,-5.640625 -4.20313,-15.453125 0,-9.8125 4.17188,-15.453125 4.1875,-5.640625 11.45312,-5.640625 7.1875,0 11.375,5.65625 4.20313,5.671875 4.20313,15.4375 0,9.71875 -4.20313,15.40625 -4.1875,5.6875 -11.375,5.6875 z m 0,7.609375 q 11.71875,0 18.40625,-7.625 6.70313,-7.609375 6.70313,-21.078125 0,-13.421875 -6.70313,-21.078125 -6.6875,-7.640625 -18.40625,-7.640625 -11.76562,0 -18.4375,7.640625 -6.65625,7.65625 -6.65625,21.078125 0,13.46875 6.65625,21.078125 Q 228.26758,56 240.0332,56 Z" />
        <use
           x="270.60547"
           xlink:href="#DejaVuSans-6e"
           id="use200"
           style="stroke-linecap:butt;stroke-linejoin:round"
           y="0"
           width="100%"
           height="100%" />
        <use
           x="333.98438"
           xlink:href="#DejaVuSans-77"
           id="use202"
           style="stroke-linecap:butt;stroke-linejoin:round"
           y="0"
           width="100%"
           height="100%" />
        <path
           style="stroke-linecap:butt;stroke-linejoin:round"
           inkscape:connector-curvature="0"
           id="use204"
           d="m 446.38086,48.390625 q -7.21875,0 -11.42188,-5.640625 -4.20312,-5.640625 -4.20312,-15.453125 0,-9.8125 4.17187,-15.453125 4.1875,-5.640625 11.45313,-5.640625 7.1875,0 11.375,5.65625 4.20312,5.671875 4.20312,15.4375 0,9.71875 -4.20312,15.40625 -4.1875,5.6875 -11.375,5.6875 z m 0,7.609375 q 11.71875,0 18.40625,-7.625 6.70312,-7.609375 6.70312,-21.078125 0,-13.421875 -6.70312,-21.078125 -6.6875,-7.640625 -18.40625,-7.640625 -11.76563,0 -18.4375,7.640625 -6.65625,7.65625 -6.65625,21.078125 0,13.46875 6.65625,21.078125 6.67187,7.625 18.4375,7.625 z" />
        <path
           style="stroke-linecap:butt;stroke-linejoin:round"
           inkscape:connector-curvature="0"
           id="use206"
           d="m 507.5625,48.390625 q -7.21875,0 -11.42188,-5.640625 -4.20312,-5.640625 -4.20312,-15.453125 0,-9.8125 4.17187,-15.453125 4.1875,-5.640625 11.45313,-5.640625 7.1875,0 11.375,5.65625 4.20312,5.671875 4.20312,15.4375 0,9.71875 -4.20312,15.40625 -4.1875,5.6875 -11.375,5.6875 z m 0,7.609375 q 11.71875,0 18.40625,-7.625 6.70312,-7.609375 6.70312,-21.078125 0,-13.421875 -6.70312,-21.078125 -6.6875,-7.640625 -18.40625,-7.640625 -11.76563,0 -18.4375,7.640625 -6.65625,7.65625 -6.65625,21.078125 0,13.46875 6.65625,21.078125 Q 495.79687,56 507.5625,56 Z" />
        <use
           x="538.13477"
           xlink:href="#DejaVuSans-64"
           id="use208"
           style="stroke-linecap:butt;stroke-linejoin:round"
           y="0"
           width="100%"
           height="100%" />
        <use
           x="601.61133"
           xlink:href="#DejaVuSans-2f"
           id="use210"
           style="stroke-linecap:butt;stroke-linejoin:round"
           y="0"
           width="100%"
           height="100%" />
        <use
           x="635.30273"
           xlink:href="#DejaVuSans-77"
           id="use212"
           style="stroke-linecap:butt;stroke-linejoin:round"
           y="0"
           width="100%"
           height="100%" />
        <use
           x="717.08984"
           xlink:href="#DejaVuSans-69"
           id="use214"
           style="stroke-linecap:butt;stroke-linejoin:round"
           y="0"
           width="100%"
           height="100%" />
        <use
           x="744.87305"
           xlink:href="#DejaVuSans-6c"
           id="use216"
           style="stroke-linecap:butt;stroke-linejoin:round"
           y="0"
           width="100%"
           height="100%" />
        <use
           x="772.65625"
           xlink:href="#DejaVuSans-6c"
           id="use218"
           style="stroke-linecap:butt;stroke-linejoin:round"
           y="0"
           width="100%"
           height="100%" />
        <path
           style="stroke-linecap:butt;stroke-linejoin:round"
           inkscape:connector-curvature="0"
           id="use220"
           d="m 831.04883,48.390625 q -7.21875,0 -11.42188,-5.640625 -4.20312,-5.640625 -4.20312,-15.453125 0,-9.8125 4.17187,-15.453125 4.1875,-5.640625 11.45313,-5.640625 7.1875,0 11.375,5.65625 4.20312,5.671875 4.20312,15.4375 0,9.71875 -4.20312,15.40625 -4.1875,5.6875 -11.375,5.6875 z m 0,7.609375 q 11.71875,0 18.40625,-7.625 6.70312,-7.609375 6.70312,-21.078125 0,-13.421875 -6.70312,-21.078125 -6.6875,-7.640625 -18.40625,-7.640625 -11.76563,0 -18.4375,7.640625 -6.65625,7.65625 -6.65625,21.078125 0,13.46875 6.65625,21.078125 Q 819.2832,56 831.04883,56 Z" />
        <use
           x="861.62109"
           xlink:href="#DejaVuSans-77"
           id="use222"
           style="stroke-linecap:butt;stroke-linejoin:round"
           y="0"
           width="100%"
           height="100%" />
      </g>
    </g>
    <g
       id="patch_14"
       style="stroke-linecap:butt;stroke-linejoin:round">
      <path
         d="m 211.19578,109.77953 h 26 v -9.1 h -26 z"
         style="fill:#db5c68;stroke:#ffffff;stroke-width:2;stroke-linecap:butt;stroke-linejoin:miter"
         id="path227"
         inkscape:connector-curvature="0" />
    </g>
    <g
       id="text_6"
       style="stroke-linecap:butt;stroke-linejoin:round">
      <!-- Aspen -->
      <defs
         id="defs231">
        <path
           d="M 34.1875,63.1875 20.796875,26.90625 h 26.8125 z m -5.578125,9.71875 h 11.1875 L 67.578125,0 h -10.25 L 50.6875,18.703125 H 17.828125 L 11.1875,0 H 0.78125 Z"
           id="DejaVuSans-41"
           inkscape:connector-curvature="0"
           style="stroke-linecap:butt;stroke-linejoin:round" />
      </defs>
      <g
         transform="matrix(0.13,0,0,-0.13,247.59578,109.77953)"
         id="g243"
         style="stroke-linecap:butt;stroke-linejoin:round">
        <use
           xlink:href="#DejaVuSans-41"
           id="use233"
           style="stroke-linecap:butt;stroke-linejoin:round"
           x="0"
           y="0"
           width="100%"
           height="100%" />
        <use
           x="68.408203"
           xlink:href="#DejaVuSans-73"
           id="use235"
           style="stroke-linecap:butt;stroke-linejoin:round"
           y="0"
           width="100%"
           height="100%" />
        <path
           style="stroke-linecap:butt;stroke-linejoin:round"
           inkscape:connector-curvature="0"
           id="use237"
           d="m 138.61719,8.203125 v -29 h -9.03125 V 54.6875 h 9.03125 v -8.296875 q 2.84375,4.875 7.15625,7.234375 4.32812,2.375 10.32812,2.375 9.96875,0 16.1875,-7.90625 6.23438,-7.90625 6.23438,-20.796875 0,-12.890625 -6.23438,-20.8125 -6.21875,-7.90625 -16.1875,-7.90625 -6,0 -10.32812,2.375 -4.3125,2.375 -7.15625,7.25 z m 30.57812,19.09375 q 0,9.90625 -4.07812,15.546875 -4.07813,5.640625 -11.20313,5.640625 -7.14062,0 -11.21875,-5.640625 -4.07812,-5.640625 -4.07812,-15.546875 0,-9.90625 4.07812,-15.546875 4.07813,-5.640625 11.21875,-5.640625 7.125,0 11.20313,5.640625 4.07812,5.640625 4.07812,15.546875 z" />
        <path
           style="stroke-linecap:butt;stroke-linejoin:round"
           inkscape:connector-curvature="0"
           id="use239"
           d="M 240.1875,29.59375 V 25.203125 H 198.875 q 0.59375,-9.28125 5.59375,-14.140625 5,-4.859375 13.9375,-4.859375 5.17187,0 10.03125,1.265625 4.85937,1.265625 9.65625,3.8125 v -8.5 q -4.84375,-2.046875 -9.92188,-3.125 -5.07812,-1.078125 -10.29687,-1.078125 -13.09375,0 -20.73438,7.609375 -7.64062,7.625 -7.64062,20.625 0,13.421875 7.25,21.296875 Q 204,56 216.3125,56 q 11.03125,0 17.45312,-7.109375 6.42188,-7.09375 6.42188,-19.296875 z m -8.98438,2.640625 q -0.0937,7.359375 -4.125,11.75 -4.03125,4.40625 -10.67187,4.40625 -7.51563,0 -12.03125,-4.25 -4.51563,-4.25 -5.20313,-11.96875 z" />
        <use
           x="245.50781"
           xlink:href="#DejaVuSans-6e"
           id="use241"
           style="stroke-linecap:butt;stroke-linejoin:round"
           y="0"
           width="100%"
           height="100%" />
      </g>
    </g>
    <g
       id="patch_15"
       style="stroke-linecap:butt;stroke-linejoin:round">
      <path
         d="m 396.23859,90.697969 h 26 v -9.1 h -26 z"
         style="fill:#f48849;stroke:#ffffff;stroke-width:2;stroke-linecap:butt;stroke-linejoin:miter"
         id="path246"
         inkscape:connector-curvature="0" />
    </g>
    <g
       id="text_7"
       style="stroke-linecap:butt;stroke-linejoin:round">
      <!-- Douglas-fir -->
      <defs
         id="defs251">
        <path
           d="M 19.671875,64.796875 V 8.109375 H 31.59375 q 15.09375,0 22.09375,6.828125 7,6.84375 7,21.59375 0,14.640625 -7,21.453125 -7,6.8125 -22.09375,6.8125 z M 9.8125,72.90625 h 20.265625 q 21.1875,0 31.09375,-8.8125 9.921875,-8.8125 9.921875,-27.5625 0,-18.859375 -9.96875,-27.703125 Q 51.171875,0 30.078125,0 H 9.8125 Z"
           id="DejaVuSans-44"
           inkscape:connector-curvature="0"
           style="stroke-linecap:butt;stroke-linejoin:round" />
        <path
           d="m 4.890625,31.390625 h 26.3125 v -8 h -26.3125 z"
           id="DejaVuSans-2d"
           inkscape:connector-curvature="0"
           style="stroke-linecap:butt;stroke-linejoin:round" />
      </defs>
      <g
         transform="matrix(0.13,0,0,-0.13,432.63859,90.697969)"
         id="g275"
         style="stroke-linecap:butt;stroke-linejoin:round">
        <use
           xlink:href="#DejaVuSans-44"
           id="use253"
           style="stroke-linecap:butt;stroke-linejoin:round"
           x="0"
           y="0"
           width="100%"
           height="100%" />
        <path
           style="stroke-linecap:butt;stroke-linejoin:round"
           inkscape:connector-curvature="0"
           id="use255"
           d="m 107.61133,48.390625 q -7.21875,0 -11.421877,-5.640625 -4.203125,-5.640625 -4.203125,-15.453125 0,-9.8125 4.171875,-15.453125 4.187497,-5.640625 11.453127,-5.640625 7.1875,0 11.375,5.65625 4.20312,5.671875 4.20312,15.4375 0,9.71875 -4.20312,15.40625 -4.1875,5.6875 -11.375,5.6875 z m 0,7.609375 q 11.71875,0 18.40625,-7.625 6.70312,-7.609375 6.70312,-21.078125 0,-13.421875 -6.70312,-21.078125 -6.6875,-7.640625 -18.40625,-7.640625 -11.765627,0 -18.437502,7.640625 -6.65625,7.65625 -6.65625,21.078125 0,13.46875 6.65625,21.078125 Q 95.845703,56 107.61133,56 Z" />
        <use
           x="138.18359"
           xlink:href="#DejaVuSans-75"
           id="use257"
           style="stroke-linecap:butt;stroke-linejoin:round"
           y="0"
           width="100%"
           height="100%" />
        <use
           x="201.5625"
           xlink:href="#DejaVuSans-67"
           id="use259"
           style="stroke-linecap:butt;stroke-linejoin:round"
           y="0"
           width="100%"
           height="100%" />
        <use
           x="265.03906"
           xlink:href="#DejaVuSans-6c"
           id="use261"
           style="stroke-linecap:butt;stroke-linejoin:round"
           y="0"
           width="100%"
           height="100%" />
        <use
           x="292.82227"
           xlink:href="#DejaVuSans-61"
           id="use263"
           style="stroke-linecap:butt;stroke-linejoin:round"
           y="0"
           width="100%"
           height="100%" />
        <use
           x="354.10156"
           xlink:href="#DejaVuSans-73"
           id="use265"
           style="stroke-linecap:butt;stroke-linejoin:round"
           y="0"
           width="100%"
           height="100%" />
        <use
           x="406.20117"
           xlink:href="#DejaVuSans-2d"
           id="use267"
           style="stroke-linecap:butt;stroke-linejoin:round"
           y="0"
           width="100%"
           height="100%" />
        <use
           x="442.28516"
           xlink:href="#DejaVuSans-66"
           id="use269"
           style="stroke-linecap:butt;stroke-linejoin:round"
           y="0"
           width="100%"
           height="100%" />
        <use
           x="477.49023"
           xlink:href="#DejaVuSans-69"
           id="use271"
           style="stroke-linecap:butt;stroke-linejoin:round"
           y="0"
           width="100%"
           height="100%" />
        <path
           style="stroke-linecap:butt;stroke-linejoin:round"
           inkscape:connector-curvature="0"
           id="use273"
           d="m 546.38281,46.296875 q -1.51562,0.875 -3.29687,1.28125 Q 541.30469,48 539.16406,48 531.53906,48 527.46094,43.046875 523.38281,38.09375 523.38281,28.8125 V 0 h -9.03125 v 54.6875 h 9.03125 v -8.5 q 2.84375,4.984375 7.375,7.390625 Q 535.30469,56 541.80469,56 q 0.92187,0 2.04687,-0.125 1.125,-0.109375 2.48438,-0.359375 z" />
      </g>
    </g>
    <g
       id="patch_16"
       style="stroke-linecap:butt;stroke-linejoin:round">
      <path
         d="m 396.23859,109.77953 h 26 v -9.1 h -26 z"
         style="fill:#febd2a;stroke:#ffffff;stroke-width:2;stroke-linecap:butt;stroke-linejoin:miter"
         id="path278"
         inkscape:connector-curvature="0" />
    </g>
    <g
       id="text_8"
       style="stroke-linecap:butt;stroke-linejoin:round">
      <!-- Krummholz -->
      <defs
         id="defs285">
        <path
           d="m 9.8125,72.90625 h 9.859375 v -30.8125 l 32.71875,30.8125 H 65.09375 L 28.90625,38.921875 67.671875,0 H 54.6875 L 19.671875,35.109375 V 0 H 9.8125 Z"
           id="DejaVuSans-4b"
           inkscape:connector-curvature="0"
           style="stroke-linecap:butt;stroke-linejoin:round" />
        <path
           d="M 52,44.1875 Q 55.375,50.25 60.0625,53.125 64.75,56 71.09375,56 q 8.546875,0 13.1875,-5.984375 4.640625,-5.96875 4.640625,-17 V 0 h -9.03125 v 32.71875 q 0,7.859375 -2.796875,11.65625 -2.78125,3.8125 -8.484375,3.8125 -6.984375,0 -11.046875,-4.640625 -4.046875,-4.625 -4.046875,-12.640625 V 0 h -9.03125 v 32.71875 q 0,7.90625 -2.78125,11.6875 -2.78125,3.78125 -8.59375,3.78125 -6.890625,0 -10.953125,-4.65625 -4.046875,-4.65625 -4.046875,-12.625 V 0 h -9.03125 v 54.6875 h 9.03125 v -8.5 q 3.078125,5.03125 7.375,7.421875 Q 29.78125,56 35.6875,56 41.65625,56 45.828125,52.96875 50,49.953125 52,44.1875 Z"
           id="DejaVuSans-6d"
           inkscape:connector-curvature="0"
           style="stroke-linecap:butt;stroke-linejoin:round" />
        <path
           d="M 54.890625,33.015625 V 0 H 45.90625 v 32.71875 q 0,7.765625 -3.03125,11.609375 -3.03125,3.859375 -9.078125,3.859375 -7.28125,0 -11.484375,-4.640625 -4.203125,-4.625 -4.203125,-12.640625 V 0 h -9.03125 v 75.984375 h 9.03125 V 46.1875 q 3.234375,4.9375 7.59375,7.375 4.375,2.4375 10.09375,2.4375 9.421875,0 14.25,-5.828125 4.84375,-5.828125 4.84375,-17.15625 z"
           id="DejaVuSans-68"
           inkscape:connector-curvature="0"
           style="stroke-linecap:butt;stroke-linejoin:round" />
        <path
           d="M 5.515625,54.6875 H 48.1875 V 46.484375 L 14.40625,7.171875 H 48.1875 V 0 H 4.296875 v 8.203125 l 33.796875,39.3125 H 5.515625 Z"
           id="DejaVuSans-7a"
           inkscape:connector-curvature="0"
           style="stroke-linecap:butt;stroke-linejoin:round" />
      </defs>
      <g
         transform="matrix(0.13,0,0,-0.13,432.63859,109.77953)"
         id="g305"
         style="stroke-linecap:butt;stroke-linejoin:round">
        <use
           xlink:href="#DejaVuSans-4b"
           id="use287"
           style="stroke-linecap:butt;stroke-linejoin:round"
           x="0"
           y="0"
           width="100%"
           height="100%" />
        <path
           style="stroke-linecap:butt;stroke-linejoin:round"
           inkscape:connector-curvature="0"
           id="use289"
           d="m 106.68555,46.296875 q -1.51563,0.875 -3.29688,1.28125 Q 101.60742,48 99.466797,48 91.841797,48 87.763672,43.046875 83.685547,38.09375 83.685547,28.8125 V 0 h -9.03125 v 54.6875 h 9.03125 v -8.5 q 2.84375,4.984375 7.375,7.390625 Q 95.607422,56 102.10742,56 q 0.92188,0 2.04688,-0.125 1.125,-0.109375 2.48437,-0.359375 z" />
        <use
           x="106.68945"
           xlink:href="#DejaVuSans-75"
           id="use291"
           style="stroke-linecap:butt;stroke-linejoin:round"
           y="0"
           width="100%"
           height="100%" />
        <use
           x="170.06836"
           xlink:href="#DejaVuSans-6d"
           id="use293"
           style="stroke-linecap:butt;stroke-linejoin:round"
           y="0"
           width="100%"
           height="100%" />
        <use
           x="267.48047"
           xlink:href="#DejaVuSans-6d"
           id="use295"
           style="stroke-linecap:butt;stroke-linejoin:round"
           y="0"
           width="100%"
           height="100%" />
        <use
           x="364.89258"
           xlink:href="#DejaVuSans-68"
           id="use297"
           style="stroke-linecap:butt;stroke-linejoin:round"
           y="0"
           width="100%"
           height="100%" />
        <path
           style="stroke-linecap:butt;stroke-linejoin:round"
           inkscape:connector-curvature="0"
           id="use299"
           d="m 458.88086,48.390625 q -7.21875,0 -11.42188,-5.640625 -4.20312,-5.640625 -4.20312,-15.453125 0,-9.8125 4.17187,-15.453125 4.1875,-5.640625 11.45313,-5.640625 7.1875,0 11.375,5.65625 4.20312,5.671875 4.20312,15.4375 0,9.71875 -4.20312,15.40625 -4.1875,5.6875 -11.375,5.6875 z m 0,7.609375 q 11.71875,0 18.40625,-7.625 6.70312,-7.609375 6.70312,-21.078125 0,-13.421875 -6.70312,-21.078125 -6.6875,-7.640625 -18.40625,-7.640625 -11.76563,0 -18.4375,7.640625 -6.65625,7.65625 -6.65625,21.078125 0,13.46875 6.65625,21.078125 6.67187,7.625 18.4375,7.625 z" />
        <use
           x="489.45312"
           xlink:href="#DejaVuSans-6c"
           id="use301"
           style="stroke-linecap:butt;stroke-linejoin:round"
           y="0"
           width="100%"
           height="100%" />
        <use
           x="517.23633"
           xlink:href="#DejaVuSans-7a"
           id="use303"
           style="stroke-linecap:butt;stroke-linejoin:round"
           y="0"
           width="100%"
           height="100%" />
      </g>
    </g>
  </g>
  <flowRoot
     xml:space="preserve"
     id="flowRoot1565"
     style="font-style:normal;font-weight:normal;font-size:30px;line-height:1.25;font-family:sans-serif;letter-spacing:0px;word-spacing:0px;fill:#000000;fill-opacity:1;stroke:none;stroke-width:0.75;stroke-linecap:butt;stroke-linejoin:round"><flowRegion
       id="flowRegion1567"
       style="stroke-width:0.75;stroke-linecap:butt;stroke-linejoin:round"><rect
         id="rect1569"
         width="56.952061"
         height="31.92767"
         x="12.943649"
         y="71.63958"
         style="stroke-width:0.75;stroke-linecap:butt;stroke-linejoin:round" /></flowRegion><flowPara
       id="flowPara1571"
       style="stroke-width:0.75;stroke-linecap:butt;stroke-linejoin:round">48.8h</flowPara></flowRoot>  <flowRoot
     xml:space="preserve"
     id="flowRoot1573"
     style="font-style:normal;font-weight:normal;font-size:30px;line-height:1.25;font-family:sans-serif;letter-spacing:0px;word-spacing:0px;fill:#000000;fill-opacity:1;stroke:none;stroke-width:0.75;stroke-linecap:butt;stroke-linejoin:round"><flowRegion
       id="flowRegion1575"
       style="stroke-width:0.75;stroke-linecap:butt;stroke-linejoin:round"><rect
         id="rect1577"
         width="0"
         height="0"
         x="33.653488"
         y="-50.030724"
         style="stroke-width:0.75;stroke-linecap:butt;stroke-linejoin:round" /></flowRegion><flowPara
       id="flowPara1579"
       style="stroke-width:0.75;stroke-linecap:butt;stroke-linejoin:round">46ghh4578</flowPara></flowRoot>  <text
     xml:space="preserve"
     style="font-style:normal;font-weight:normal;font-size:30px;line-height:1.25;font-family:sans-serif;letter-spacing:0px;word-spacing:0px;fill:#000000;fill-opacity:1;stroke:none;stroke-width:0.75;stroke-linecap:butt;stroke-linejoin:round"
     x="22.714113"
     y="106.1358"
     id="text1583"><tspan
       sodipodi:role="line"
       id="tspan1581"
       style="font-size:19.18000031px;stroke-width:0.75;stroke-linecap:butt;stroke-linejoin:round"
       x="22.714113"
       y="106.1358">48.8%</tspan></text>
  <text
     xml:space="preserve"
     style="font-style:normal;font-weight:normal;font-size:30px;line-height:1.25;font-family:sans-serif;letter-spacing:0px;word-spacing:0px;fill:#000000;fill-opacity:1;stroke:none;stroke-width:0.75;stroke-linecap:butt;stroke-linejoin:round"
     x="22.189661"
     y="326.70673"
     id="text1583-3"><tspan
       sodipodi:role="line"
       id="tspan1581-6"
       style="font-size:19.18000031px;stroke-width:0.75;stroke-linecap:butt;stroke-linejoin:round"
       x="22.189661"
       y="326.70673">36.5%</tspan></text>
  <text
     xml:space="preserve"
     style="font-style:normal;font-weight:normal;font-size:30px;line-height:1.25;font-family:sans-serif;letter-spacing:0px;word-spacing:0px;fill:#000000;fill-opacity:1;stroke:none;stroke-width:0.75;stroke-linecap:butt;stroke-linejoin:round"
     x="361.57755"
     y="348.82278"
     id="text1583-3-7"><tspan
       sodipodi:role="line"
       id="tspan1581-6-5"
       style="font-size:19.18000031px;stroke-width:0.75;stroke-linecap:butt;stroke-linejoin:round"
       x="361.57755"
       y="348.82278">6.1%</tspan></text>
  <text
     xml:space="preserve"
     style="font-style:normal;font-weight:normal;font-size:30px;line-height:1.25;font-family:sans-serif;letter-spacing:0px;word-spacing:0px;fill:#000000;fill-opacity:1;stroke:none;stroke-width:0.75;stroke-linecap:butt;stroke-linejoin:round"
     x="409.64282"
     y="306.54312"
     id="text1583-3-7-3"><tspan
       sodipodi:role="line"
       id="tspan1581-6-5-5"
       style="font-size:19.18000031px;stroke-width:0.75;stroke-linecap:butt;stroke-linejoin:round"
       x="409.64282"
       y="306.54312">3.5%</tspan></text>
  <text
     xml:space="preserve"
     style="font-style:normal;font-weight:normal;font-size:30px;line-height:1.25;font-family:sans-serif;letter-spacing:0px;word-spacing:0px;fill:#000000;fill-opacity:1;stroke:none;stroke-width:0.75;stroke-linecap:butt;stroke-linejoin:round"
     x="417.74298"
     y="265.28043"
     id="text1583-3-7-3-6"><tspan
       sodipodi:role="line"
       id="tspan1581-6-5-5-2"
       style="font-size:19.18000031px;stroke-width:0.75;stroke-linecap:butt;stroke-linejoin:round"
       x="417.74298"
       y="265.28043">3.0%</tspan></text>
  <text
     xml:space="preserve"
     style="font-style:normal;font-weight:normal;font-size:30px;line-height:1.25;font-family:sans-serif;letter-spacing:0px;word-spacing:0px;fill:#000000;fill-opacity:1;stroke:none;stroke-width:0.75;stroke-linecap:butt;stroke-linejoin:round"
     x="442.50568"
     y="236.83125"
     id="text1583-3-7-3-6-9"><tspan
       sodipodi:role="line"
       id="tspan1581-6-5-5-2-1"
       style="font-size:19.18000031px;stroke-width:0.75;stroke-linecap:butt;stroke-linejoin:round"
       x="442.50568"
       y="236.83125">1.6%</tspan></text>
  <text
     xml:space="preserve"
     style="font-style:normal;font-weight:normal;font-size:30px;line-height:1.25;font-family:sans-serif;letter-spacing:0px;word-spacing:0px;fill:#000000;fill-opacity:1;stroke:none;stroke-width:0.75;stroke-linecap:butt;stroke-linejoin:round"
     x="408.8775"
     y="204.08549"
     id="text1583-3-7-3-6-9-2"><tspan
       sodipodi:role="line"
       id="tspan1581-6-5-5-2-1-7"
       style="font-size:19.18000031px;stroke-width:0.75;stroke-linecap:butt;stroke-linejoin:round"
       x="408.8775"
       y="204.08549">0.5%</tspan></text>
</svg>
